<?xml version="1.0" encoding="UTF-8"?>
<svg width="128px" height="140px" viewBox="0 0 128 140" version="1.1" xmlns="http://www.w3.org/2000/svg" xmlns:xlink="http://www.w3.org/1999/xlink">
    <!-- Generator: Sketch 54.1 (76490) - https://sketchapp.com -->
    <title>Group 9</title>
    <desc>Created with Sketch.</desc>
    <g id="High-fidelity-mock-ups" stroke="none" stroke-width="1" fill="none" fill-rule="evenodd">
        <g id="Desktop-Copy-38" transform="translate(-87.000000, -518.000000)">
            <g id="Group-9" transform="translate(87.000000, 518.000000)">
                <rect id="Rectangle-Copy-21" stroke="#0D54DF" stroke-width="4" fill="#FFFFFF" x="2" y="2" width="124" height="136" rx="8"></rect>
                <path d="M91.45,45.92 C88.0699831,42.2799818 84.7983491,39.8533394 81.635,38.64 C78.4716508,37.4266606 75.2866827,36.82 72.08,36.82 C67.3133095,36.82 63.0016859,37.6649916 59.145,39.355 C55.288314,41.0450085 51.9733472,43.3849851 49.2,46.375 C46.4266528,49.365015 44.2816742,52.8533134 42.765,56.84 C41.2483257,60.8266866 40.49,65.1166437 40.49,69.71 C40.49,74.6500247 41.2483257,79.1999792 42.765,83.36 C44.2816742,87.5200208 46.4266528,91.1166515 49.2,94.15 C51.9733472,97.1833485 55.288314,99.566658 59.145,101.3 C63.0016859,103.033342 67.3133095,103.9 72.08,103.9 C75.8066853,103.9 79.4249824,103.011676 82.935,101.235 C86.4450175,99.4583245 89.7166515,96.6200195 92.75,92.72 L106.27,102.34 C102.109979,108.060029 97.0400299,112.219987 91.06,114.82 C85.0799701,117.420013 78.7100338,118.72 71.95,118.72 C64.8432978,118.72 58.3216963,117.571678 52.385,115.275 C46.4483036,112.978322 41.3350214,109.728354 37.045,105.525 C32.7549785,101.321646 29.3966788,96.2733628 26.97,90.38 C24.5433212,84.4866372 23.33,77.9433693 23.33,70.75 C23.33,63.3832965 24.5433212,56.6883635 26.97,50.665 C29.3966788,44.6416366 32.7549785,39.5066879 37.045,35.26 C41.3350214,31.0133121 46.4483036,27.7416782 52.385,25.445 C58.3216963,23.1483219 64.8432978,22 71.95,22 C78.1900312,22 83.9749733,23.104989 89.305,25.315 C94.6350266,27.5250111 99.5966437,31.2733069 104.19,36.56 L91.45,45.92 Z" id="C-Copy" fill="#0D54DF" fill-rule="nonzero"></path>
            </g>
        </g>
    </g>
</svg>