<?xml version="1.0" encoding="UTF-8"?>
<svg width="32px" height="32px" viewBox="0 0 32 32" version="1.1" xmlns="http://www.w3.org/2000/svg" xmlns:xlink="http://www.w3.org/1999/xlink">
    <!-- Generator: Sketch 54.1 (76490) - https://sketchapp.com -->
    <title>Group 3</title>
    <desc>Created with Sketch.</desc>
    <g id="High-fidelity-mock-ups" stroke="none" stroke-width="1" fill="none" fill-rule="evenodd">
        <g id="Desktop-Copy-38" transform="translate(-16.000000, -224.000000)">
            <g id="Group-3" transform="translate(16.000000, 224.000000)">
                <rect id="Rectangle-Copy-15" fill="#FFFFFF" x="0" y="0" width="32" height="32" rx="2"></rect>
                <path d="M21.8875,10.47 C21.3891642,9.8633303 20.777087,9.39750163 20.05125,9.0725 C19.325413,8.74749838 18.4858381,8.585 17.5325,8.585 C16.5791619,8.585 15.6962541,8.76916483 14.88375,9.1375 C14.0712459,9.50583518 13.3670863,10.0204134 12.77125,10.68125 C12.1754137,11.3420866 11.709585,12.1274955 11.37375,13.0375 C11.037915,13.9475046 10.87,14.933328 10.87,15.995 C10.87,17.0783388 11.037915,18.0695788 11.37375,18.96875 C11.709585,19.8679212 12.1699971,20.6479134 12.755,21.30875 C13.3400029,21.9695866 14.0279127,22.4841648 14.81875,22.8525 C15.6095873,23.2208352 16.4599954,23.405 17.37,23.405 C18.4100052,23.405 19.3308293,23.1883355 20.1325,22.755 C20.9341707,22.3216645 21.5949974,21.7150039 22.115,20.935 L26.34,24.0875 C25.3649951,25.4525068 24.1300075,26.4599968 22.635,27.11 C21.1399925,27.7600033 19.6016746,28.085 18.02,28.085 C16.2216577,28.085 14.5641742,27.8033362 13.0475,27.24 C11.5308257,26.6766639 10.2200055,25.8695886 9.115,24.81875 C8.00999447,23.7679114 7.14875309,22.4950075 6.53125,21 C5.91374691,19.5049925 5.605,17.8366759 5.605,15.995 C5.605,14.1533241 5.91374691,12.4850075 6.53125,10.99 C7.14875309,9.49499253 8.00999447,8.22208859 9.115,7.17125 C10.2200055,6.12041141 11.5308257,5.31333615 13.0475,4.75 C14.5641742,4.18666385 16.2216577,3.905 18.02,3.905 C18.6700032,3.905 19.3470798,3.96458274 20.05125,4.08375 C20.7554202,4.20291726 21.4487466,4.3924987 22.13125,4.6525 C22.8137534,4.9125013 23.4691635,5.2591645 24.0975,5.6925 C24.7258365,6.1258355 25.2891642,6.65666353 25.7875,7.285 L21.8875,10.47 Z" id="C" fill="#2188ED" fill-rule="nonzero"></path>
            </g>
        </g>
    </g>
</svg>