<?xml version="1.0" encoding="UTF-8"?>
<svg width="135px" height="32px" viewBox="0 0 135 32" version="1.1" xmlns="http://www.w3.org/2000/svg" xmlns:xlink="http://www.w3.org/1999/xlink">
    <!-- Generator: Sketch 54.1 (76490) - https://sketchapp.com -->
    <title>Group 4</title>
    <desc>Created with Sketch.</desc>
    <g id="High-fidelity-mock-ups" stroke="none" stroke-width="1" fill="none" fill-rule="evenodd">
        <g id="Desktop-Copy-38" transform="translate(-54.000000, -183.000000)">
            <g id="Group-4" transform="translate(54.000000, 183.000000)">
                <rect id="Rectangle-Copy-29" stroke="#2188ED" fill="#2188ED" x="0.5" y="0.5" width="134" height="31" rx="2"></rect>
                <path d="M22.3875,9.97 C21.8891642,9.3633303 21.277087,8.89750163 20.55125,8.5725 C19.825413,8.24749838 18.9858381,8.085 18.0325,8.085 C17.0791619,8.085 16.1962541,8.26916483 15.38375,8.6375 C14.5712459,9.00583518 13.8670863,9.52041336 13.27125,10.18125 C12.6754137,10.8420866 12.209585,11.6274955 11.87375,12.5375 C11.537915,13.4475046 11.37,14.433328 11.37,15.495 C11.37,16.5783388 11.537915,17.5695788 11.87375,18.46875 C12.209585,19.3679212 12.6699971,20.1479134 13.255,20.80875 C13.8400029,21.4695866 14.5279127,21.9841648 15.31875,22.3525 C16.1095873,22.7208352 16.9599954,22.905 17.87,22.905 C18.9100052,22.905 19.8308293,22.6883355 20.6325,22.255 C21.4341707,21.8216645 22.0949974,21.2150039 22.615,20.435 L26.84,23.5875 C25.8649951,24.9525068 24.6300075,25.9599968 23.135,26.61 C21.6399925,27.2600033 20.1016746,27.585 18.52,27.585 C16.7216577,27.585 15.0641742,27.3033362 13.5475,26.74 C12.0308257,26.1766639 10.7200055,25.3695886 9.615,24.31875 C8.50999447,23.2679114 7.64875309,21.9950075 7.03125,20.5 C6.41374691,19.0049925 6.105,17.3366759 6.105,15.495 C6.105,13.6533241 6.41374691,11.9850075 7.03125,10.49 C7.64875309,8.99499253 8.50999447,7.72208859 9.615,6.67125 C10.7200055,5.62041141 12.0308257,4.81333615 13.5475,4.25 C15.0641742,3.68666385 16.7216577,3.405 18.52,3.405 C19.1700032,3.405 19.8470798,3.46458274 20.55125,3.58375 C21.2554202,3.70291726 21.9487466,3.8924987 22.63125,4.1525 C23.3137534,4.4125013 23.9691635,4.7591645 24.5975,5.1925 C25.2258365,5.6258355 25.7891642,6.15666353 26.2875,6.785 L22.3875,9.97 Z M44.5151097,27 L39.8351097,27 L39.8351097,24.855 L39.7701097,24.855 C39.5967755,25.1583349 39.3746944,25.4616652 39.1038597,25.765 C38.833025,26.0683349 38.5026116,26.3391655 38.1126097,26.5775 C37.7226077,26.8158345 37.2784455,27.0108326 36.7801097,27.1625 C36.2817739,27.3141674 35.7401126,27.39 35.1551097,27.39 C33.9201035,27.39 32.9180302,27.2004186 32.1488597,26.82125 C31.3796892,26.4420814 30.7838618,25.91667 30.3613597,25.245 C29.9388576,24.57333 29.6571937,23.7825046 29.5163597,22.8725 C29.3755257,21.9624955 29.3051097,20.976672 29.3051097,19.915 L29.3051097,11.205 L34.1801097,11.205 L34.1801097,18.94 C34.1801097,19.3950023 34.1963595,19.8662476 34.2288597,20.35375 C34.2613599,20.8412524 34.3588589,21.2908313 34.5213597,21.7025 C34.6838605,22.1141687 34.9330247,22.4499987 35.2688597,22.71 C35.6046947,22.9700013 36.0867732,23.1 36.7151097,23.1 C37.3434462,23.1 37.8526077,22.9862511 38.2426097,22.75875 C38.6326116,22.5312489 38.9305253,22.2279186 39.1363597,21.84875 C39.3421941,21.4695814 39.4776094,21.0416691 39.5426097,20.565 C39.60761,20.088331 39.6401097,19.5900026 39.6401097,19.07 L39.6401097,11.205 L44.5151097,11.205 L44.5151097,27 Z M48.2802194,11.205 L53.1552194,11.205 L53.1552194,13.74 L53.2202194,13.74 C53.740222,12.7649951 54.3577158,12.0337524 55.0727194,11.54625 C55.787723,11.0587476 56.6868806,10.815 57.7702194,10.815 C58.0518875,10.815 58.3335513,10.8258332 58.6152194,10.8475 C58.8968875,10.8691668 59.1568849,10.9124997 59.3952194,10.9775 L59.3952194,15.43 C59.048551,15.3216661 58.7073044,15.2404169 58.3714694,15.18625 C58.0356344,15.1320831 57.6835546,15.105 57.3152194,15.105 C56.3835481,15.105 55.6468888,15.2349987 55.1052194,15.495 C54.56355,15.7550013 54.1464709,16.1179143 53.8539694,16.58375 C53.5614679,17.0495857 53.3718865,17.6074968 53.2852194,18.2575 C53.1985523,18.9075033 53.1552194,19.6224961 53.1552194,20.4025 L53.1552194,27 L48.2802194,27 L48.2802194,11.205 Z M61.8278291,11.205 L66.7028291,11.205 L66.7028291,13.74 L66.7678291,13.74 C67.2878317,12.7649951 67.9053255,12.0337524 68.6203291,11.54625 C69.3353327,11.0587476 70.2344903,10.815 71.3178291,10.815 C71.5994972,10.815 71.881161,10.8258332 72.1628291,10.8475 C72.4444972,10.8691668 72.7044946,10.9124997 72.9428291,10.9775 L72.9428291,15.43 C72.5961607,15.3216661 72.2549141,15.2404169 71.9190791,15.18625 C71.5832441,15.1320831 71.2311643,15.105 70.8628291,15.105 C69.9311578,15.105 69.1944985,15.2349987 68.6528291,15.495 C68.1111597,15.7550013 67.6940806,16.1179143 67.4015791,16.58375 C67.1090776,17.0495857 66.9194962,17.6074968 66.8328291,18.2575 C66.746162,18.9075033 66.7028291,19.6224961 66.7028291,20.4025 L66.7028291,27 L61.8278291,27 L61.8278291,11.205 Z M75.4404388,11.205 L80.3154388,11.205 L80.3154388,27 L75.4404388,27 L75.4404388,11.205 Z M75.0504388,6.2325 C75.0504388,5.4524961 75.326686,4.78625276 75.8791888,4.23375 C76.4316916,3.68124724 77.0979349,3.405 77.8779388,3.405 C78.6579427,3.405 79.324186,3.68124724 79.8766888,4.23375 C80.4291916,4.78625276 80.7054388,5.4524961 80.7054388,6.2325 C80.7054388,7.0125039 80.4291916,7.67874724 79.8766888,8.23125 C79.324186,8.78375276 78.6579427,9.06 77.8779388,9.06 C77.0979349,9.06 76.4316916,8.78375276 75.8791888,8.23125 C75.326686,7.67874724 75.0504388,7.0125039 75.0504388,6.2325 Z M94.8380485,16.3075 C94.599714,15.9608316 94.263884,15.6737511 93.8305485,15.44625 C93.397213,15.2187489 92.9313843,15.105 92.4330485,15.105 C91.1980423,15.105 90.2393019,15.4733297 89.5567985,16.21 C88.8742951,16.9466704 88.5330485,17.9108274 88.5330485,19.1025 C88.5330485,20.2941726 88.8742951,21.2583297 89.5567985,21.995 C90.2393019,22.7316704 91.1980423,23.1 92.4330485,23.1 C92.9747179,23.1 93.4405465,22.9808345 93.8305485,22.7425 C94.2205504,22.5041655 94.5563804,22.2225016 94.8380485,21.8975 L98.0555485,25.2775 C97.2972114,26.0575039 96.4034703,26.6045818 95.3742985,26.91875 C94.3451267,27.2329182 93.3647198,27.39 92.4330485,27.39 C91.2197091,27.39 90.0768039,27.195002 89.0042985,26.805 C87.9317931,26.4149981 87.0001358,25.857087 86.2092985,25.13125 C85.4184612,24.405413 84.7955508,23.5333384 84.3405485,22.515 C83.8855462,21.4966616 83.6580485,20.359173 83.6580485,19.1025 C83.6580485,17.8458271 83.8855462,16.7083384 84.3405485,15.69 C84.7955508,14.6716616 85.4184612,13.799587 86.2092985,13.07375 C87.0001358,12.347913 87.9317931,11.790002 89.0042985,11.4 C90.0768039,11.0099981 91.2197091,10.815 92.4330485,10.815 C93.3647198,10.815 94.3451267,10.9720818 95.3742985,11.28625 C96.4034703,11.6004182 97.2972114,12.1474961 98.0555485,12.9275 L94.8380485,16.3075 Z M115.340658,27 L110.660658,27 L110.660658,24.855 L110.595658,24.855 C110.422324,25.1583349 110.200243,25.4616652 109.929408,25.765 C109.658574,26.0683349 109.32816,26.3391655 108.938158,26.5775 C108.548156,26.8158345 108.103994,27.0108326 107.605658,27.1625 C107.107322,27.3141674 106.565661,27.39 105.980658,27.39 C104.745652,27.39 103.743579,27.2004186 102.974408,26.82125 C102.205238,26.4420814 101.60941,25.91667 101.186908,25.245 C100.764406,24.57333 100.482742,23.7825046 100.341908,22.8725 C100.201074,21.9624955 100.130658,20.976672 100.130658,19.915 L100.130658,11.205 L105.005658,11.205 L105.005658,18.94 C105.005658,19.3950023 105.021908,19.8662476 105.054408,20.35375 C105.086908,20.8412524 105.184407,21.2908313 105.346908,21.7025 C105.509409,22.1141687 105.758573,22.4499987 106.094408,22.71 C106.430243,22.9700013 106.912322,23.1 107.540658,23.1 C108.168995,23.1 108.678156,22.9862511 109.068158,22.75875 C109.45816,22.5312489 109.756074,22.2279186 109.961908,21.84875 C110.167743,21.4695814 110.303158,21.0416691 110.368158,20.565 C110.433159,20.088331 110.465658,19.5900026 110.465658,19.07 L110.465658,11.205 L115.340658,11.205 L115.340658,27 Z M119.105768,11.205 L123.980768,11.205 L123.980768,13.74 L124.045768,13.74 C124.56577,12.7649951 125.183264,12.0337524 125.898268,11.54625 C126.613271,11.0587476 127.512429,10.815 128.595768,10.815 C128.877436,10.815 129.1591,10.8258332 129.440768,10.8475 C129.722436,10.8691668 129.982433,10.9124997 130.220768,10.9775 L130.220768,15.43 C129.874099,15.3216661 129.532853,15.2404169 129.197018,15.18625 C128.861183,15.1320831 128.509103,15.105 128.140768,15.105 C127.209097,15.105 126.472437,15.2349987 125.930768,15.495 C125.389099,15.7550013 124.972019,16.1179143 124.679518,16.58375 C124.387016,17.0495857 124.197435,17.6074968 124.110768,18.2575 C124.024101,18.9075033 123.980768,19.6224961 123.980768,20.4025 L123.980768,27 L119.105768,27 L119.105768,11.205 Z" id="Curricur" fill="#FFFFFF" fill-rule="nonzero"></path>
            </g>
        </g>
    </g>
</svg>