<?xml version="1.0" encoding="UTF-8"?>
<svg width="540px" height="144px" viewBox="0 0 540 144" version="1.1" xmlns="http://www.w3.org/2000/svg" xmlns:xlink="http://www.w3.org/1999/xlink">
    <!-- Generator: Sketch 54.1 (76490) - https://sketchapp.com -->
    <title>Group 7</title>
    <desc>Created with Sketch.</desc>
    <g id="High-fidelity-mock-ups" stroke="none" stroke-width="1" fill="none" fill-rule="evenodd">
        <g id="Desktop-Copy-38" transform="translate(-239.000000, -686.000000)">
            <g id="Group-7" transform="translate(239.000000, 686.000000)">
                <rect id="Rectangle-Copy-29" fill="#FFFFFF" x="0" y="0" width="540" height="144" rx="8"></rect>
                <path d="M375.162193,74.7 C373.342184,72.7933238 371.435537,71.2766723 369.442193,70.15 C367.44885,69.0233277 365.412204,68.46 363.332193,68.46 C360.472179,68.46 357.915538,68.9799948 355.662193,70.02 C353.408849,71.0600052 351.480535,72.446658 349.877193,74.18 C348.273852,75.913342 347.060531,77.9066554 346.237193,80.16 C345.413856,82.4133446 345.002193,84.7533212 345.002193,87.18 C345.002193,89.6066788 345.413856,91.9466554 346.237193,94.2 C347.060531,96.4533446 348.273852,98.446658 349.877193,100.18 C351.480535,101.913342 353.408849,103.299995 355.662193,104.34 C357.915538,105.380005 360.472179,105.9 363.332193,105.9 C365.758872,105.9 368.012183,105.401672 370.092193,104.405 C372.172204,103.408328 373.948853,101.956676 375.422193,100.05 L385.822193,111.23 C384.262186,112.790008 382.46387,114.133328 380.427193,115.26 C378.390516,116.386672 376.332204,117.296663 374.252193,117.99 C372.172183,118.683337 370.17887,119.181665 368.272193,119.485 C366.365517,119.788335 364.718867,119.94 363.332193,119.94 C358.65217,119.94 354.232214,119.160008 350.072193,117.6 C345.912173,116.039992 342.315542,113.830014 339.282193,110.97 C336.248845,108.109986 333.843869,104.66502 332.067193,100.635 C330.290518,96.6049799 329.402193,92.1200247 329.402193,87.18 C329.402193,82.2399753 330.290518,77.7550202 332.067193,73.725 C333.843869,69.6949799 336.248845,66.2500143 339.282193,63.39 C342.315542,60.5299857 345.912173,58.3200078 350.072193,56.76 C354.232214,55.1999922 358.65217,54.42 363.332193,54.42 C367.31888,54.42 371.327173,55.1783258 375.357193,56.695 C379.387213,58.2116743 382.918845,60.6166502 385.952193,63.91 L375.162193,74.7 Z" id="Path" fill="#0D54DF" fill-rule="nonzero"></path>
                <path d="M453.402632,118.38 L438.582632,118.38 L438.582632,108.37 L438.322632,108.37 C436.849291,111.490016 434.59598,114.198322 431.562632,116.495 C428.529283,118.791678 424.412658,119.94 419.212632,119.94 C415.052611,119.94 411.52098,119.26834 408.617632,117.925 C405.714284,116.58166 403.352641,114.761678 401.532632,112.465 C399.712623,110.168322 398.412636,107.546681 397.632632,104.6 C396.852628,101.653319 396.462632,98.5766827 396.462632,95.37 L396.462632,55.98 L412.062632,55.98 L412.062632,87.57 C412.062632,89.303342 412.149298,91.231656 412.322632,93.355 C412.495966,95.4783439 412.950962,97.4716573 413.687632,99.335 C414.424302,101.198343 415.550958,102.758327 417.067632,104.015 C418.584306,105.271673 420.729285,105.9 423.502632,105.9 C426.102645,105.9 428.290956,105.466671 430.067632,104.6 C431.844308,103.733329 433.317626,102.563341 434.487632,101.09 C435.657638,99.6166593 436.502629,97.9266762 437.022632,96.02 C437.542635,94.1133238 437.802632,92.1200104 437.802632,90.04 L437.802632,55.98 L453.402632,55.98 L453.402632,118.38 Z" id="Path" fill="#0D54DF" fill-rule="nonzero"></path>
                <path d="M472.363071,55.98 L487.963071,55.98 L487.963071,65.86 L488.223071,65.86 C489.956413,62.2199818 492.426388,59.4033433 495.633071,57.41 C498.839753,55.4166567 502.52305,54.42 506.683071,54.42 C507.636409,54.42 508.568066,54.5066658 509.478071,54.68 C510.388075,54.8533342 511.319733,55.0699987 512.273071,55.33 L512.273071,70.41 C510.973064,70.0633316 509.694744,69.7816678 508.438071,69.565 C507.181398,69.3483323 505.94641,69.24 504.733071,69.24 C501.093052,69.24 498.168082,69.91166 495.958071,71.255 C493.74806,72.5983401 492.058076,74.136658 490.888071,75.87 C489.718065,77.603342 488.938073,79.336658 488.548071,81.07 C488.158069,82.803342 487.963071,84.103329 487.963071,84.97 L487.963071,118.38 L472.363071,118.38 L472.363071,55.98 Z" id="Path" fill="#0D54DF" fill-rule="nonzero"></path>
                <path d="M92.12,47.92 C88.7399831,44.2799818 85.4683492,41.8533394 82.305,40.64 C79.1416509,39.4266606 75.9566827,38.82 72.75,38.82 C67.9833095,38.82 63.671686,39.6649916 59.815,41.355 C55.9583141,43.0450085 52.6433472,45.3849851 49.87,48.375 C47.0966528,51.365015 44.9516743,54.8533134 43.435,58.84 C41.9183258,62.8266866 41.16,67.1166437 41.16,71.71 C41.16,76.6500247 41.9183258,81.1999792 43.435,85.36 C44.9516743,89.5200208 47.0966528,93.1166515 49.87,96.15 C52.6433472,99.1833485 55.9583141,101.566658 59.815,103.3 C63.671686,105.033342 67.9833095,105.9 72.75,105.9 C76.4766853,105.9 80.0949825,105.011676 83.605,103.235 C87.1150176,101.458324 90.3866515,98.6200195 93.42,94.72 L106.94,104.34 C102.779979,110.060029 97.7100299,114.219987 91.73,116.82 C85.7499701,119.420013 79.3800338,120.72 72.62,120.72 C65.5132978,120.72 58.9916964,119.571678 53.055,117.275 C47.1183037,114.978322 42.0050215,111.728354 37.715,107.525 C33.4249786,103.321646 30.0666788,98.2733628 27.64,92.38 C25.2133212,86.4866372 24,79.9433693 24,72.75 C24,65.3832965 25.2133212,58.6883635 27.64,52.665 C30.0666788,46.6416366 33.4249786,41.5066879 37.715,37.26 C42.0050215,33.0133121 47.1183037,29.7416782 53.055,27.445 C58.9916964,25.1483219 65.5132978,24 72.62,24 C78.8600312,24 84.6449734,25.104989 89.975,27.315 C95.3050267,29.5250111 100.266644,33.2733069 104.86,38.56 L92.12,47.92 Z" id="Path" fill="#0D54DF" fill-rule="nonzero"></path>
                <path d="M174.780439,118.38 L159.960439,118.38 L159.960439,108.37 L159.700439,108.37 C158.227098,111.490016 155.973787,114.198322 152.940439,116.495 C149.90709,118.791678 145.790465,119.94 140.590439,119.94 C136.430418,119.94 132.898787,119.26834 129.995439,117.925 C127.092091,116.58166 124.730448,114.761678 122.910439,112.465 C121.09043,110.168322 119.790443,107.546681 119.010439,104.6 C118.230435,101.653319 117.840439,98.5766827 117.840439,95.37 L117.840439,55.98 L133.440439,55.98 L133.440439,87.57 C133.440439,89.303342 133.527104,91.231656 133.700439,93.355 C133.873773,95.4783439 134.328768,97.4716573 135.065439,99.335 C135.802109,101.198343 136.928764,102.758327 138.445439,104.015 C139.962113,105.271673 142.107091,105.9 144.880439,105.9 C147.480452,105.9 149.668763,105.466671 151.445439,104.6 C153.222114,103.733329 154.695433,102.563341 155.865439,101.09 C157.035445,99.6166593 157.880436,97.9266762 158.400439,96.02 C158.920441,94.1133238 159.180439,92.1200104 159.180439,90.04 L159.180439,55.98 L174.780439,55.98 L174.780439,118.38 Z" id="Path" fill="#0D54DF" fill-rule="nonzero"></path>
                <path d="M193.740877,55.98 L209.340877,55.98 L209.340877,65.86 L209.600877,65.86 C211.334219,62.2199818 213.804195,59.4033433 217.010877,57.41 C220.21756,55.4166567 223.900857,54.42 228.060877,54.42 C229.014215,54.42 229.945873,54.5066658 230.855877,54.68 C231.765882,54.8533342 232.697539,55.0699987 233.650877,55.33 L233.650877,70.41 C232.350871,70.0633316 231.07255,69.7816678 229.815877,69.565 C228.559204,69.3483323 227.324217,69.24 226.110877,69.24 C222.470859,69.24 219.545888,69.91166 217.335877,71.255 C215.125866,72.5983401 213.435883,74.136658 212.265877,75.87 C211.095871,77.603342 210.315879,79.336658 209.925877,81.07 C209.535875,82.803342 209.340877,84.103329 209.340877,84.97 L209.340877,118.38 L193.740877,118.38 L193.740877,55.98 Z" id="Path" fill="#0D54DF" fill-rule="nonzero"></path>
                <path d="M245.591316,55.98 L261.191316,55.98 L261.191316,65.86 L261.451316,65.86 C263.184658,62.2199818 265.654633,59.4033433 268.861316,57.41 C272.067999,55.4166567 275.751295,54.42 279.911316,54.42 C280.864654,54.42 281.796311,54.5066658 282.706316,54.68 C283.616321,54.8533342 284.547978,55.0699987 285.501316,55.33 L285.501316,70.41 C284.201309,70.0633316 282.922989,69.7816678 281.666316,69.565 C280.409643,69.3483323 279.174655,69.24 277.961316,69.24 C274.321298,69.24 271.396327,69.91166 269.186316,71.255 C266.976305,72.5983401 265.286322,74.136658 264.116316,75.87 C262.94631,77.603342 262.166318,79.336658 261.776316,81.07 C261.386314,82.803342 261.191316,84.103329 261.191316,84.97 L261.191316,118.38 L245.591316,118.38 L245.591316,55.98 Z" id="Path" fill="#0D54DF" fill-rule="nonzero"></path>
                <polygon id="Path" fill="#0D54DF" fill-rule="nonzero" points="297.701755 55.98 313.301755 55.98 313.301755 118.38 297.701755 118.38"></polygon>
                <path d="M295.491755,34.79 C295.491755,32.2766541 296.423412,30.0883427 298.286755,28.225 C300.150097,26.3616574 302.51174,25.43 305.371755,25.43 C308.231769,25.43 310.636745,26.3183245 312.586755,28.095 C314.536764,29.8716756 315.511755,32.1033199 315.511755,34.79 C315.511755,37.4766801 314.536764,39.7083245 312.586755,41.485 C310.636745,43.2616756 308.231769,44.15 305.371755,44.15 C302.51174,44.15 300.150097,43.2183427 298.286755,41.355 C296.423412,39.4916574 295.491755,37.3033459 295.491755,34.79 Z" id="Path" fill="#0D54DF" fill-rule="nonzero"></path>
            </g>
        </g>
    </g>
</svg>